<svg xmlns="http://www.w3.org/2000/svg" viewBox="0 0 304.66 381.95"><defs><style>.cls-1{fill:#00002a;}.cls-2{fill:#ec1c24;}.cls-3{fill:#d9a268;}.cls-4{fill:#bb8c5a;}.cls-5{fill:none;}.cls-6{fill:#9d774a;}.cls-7{fill:#f0b271;}.cls-8{fill:#cc5c36;}.cls-9{fill:#ea9a59;}.cls-10{fill:#ba7554;}.cls-11{fill:#d6bd9c;}.cls-12{fill:#b8a488;}.cls-13{fill:#af9c81;}.cls-14{fill:#c4482b;}.cls-15{fill:#cd805c;}.cls-16{fill:#e18c65;}.cls-17{fill:#d89b6a;}.cls-18{fill:#b18c62;}.cls-19{fill:#e9b98e;}.cls-20{fill:#cb8d60;}.cls-21{fill:#493622;}.cls-22{fill:#e8b682;}.cls-23{fill:#ae8253;}.cls-24{fill:#3b2314;}.cls-25{fill:#21130b;}.cls-26{fill:#e1bea2;}.cls-27{fill:#c3996b;}.cls-28{fill:#904c29;}.cls-29{fill:#f1f1f2;}.cls-30{fill:#bbbdbf;}.cls-31{fill:#5a442e;}.cls-32{fill:#d4a982;}.cls-33{fill:#603813;}.cls-34{fill:#c0663c;}.cls-35{fill:#754c28;}.cls-36{fill:#380f00;}.cls-37{fill:#894826;}.cls-38{fill:#5b0000;}.cls-39{fill:#cba37d;}.cls-40{fill:#d0d2d3;}.cls-41{fill:#c91c1f;}.cls-42{fill:#900b0a;}.cls-43{fill:#262662;}.cls-44{fill:#e6e7e8;}.cls-45{fill:#808184;}.cls-46{fill:#e82325;}.cls-47{fill:#1f1e56;}.cls-48{fill:#18154c;}.cls-49{fill:#00001c;}.cls-50{fill:#58595b;}.cls-51{fill:#91826d;}.cls-52{fill:#a15530;}.cls-53{fill:#bf9c7b;}.cls-54{fill:#6d6e70;}.cls-55{fill:#404041;}.cls-56{fill:#c1976d;}.cls-57{fill:#847866;}.cls-58{fill:#cf9b63;}.cls-59{fill:#231f20;}.cls-60{fill:#a6a8ab;}.cls-61{fill:#fff;}</style></defs><g id="Layer_2" data-name="Layer 2"><g id="Layer_4" data-name="Layer 4"><polygon class="cls-1" points="179.5 149.76 177.5 154.23 174.57 154.23 171.51 148.93 179.5 149.76"/><polygon class="cls-2" points="96.36 309.92 73.66 234.42 80 196.74 91.75 177.75 92.41 163.72 92.43 163.24 92.44 163.61 92.52 166.6 93.37 198.3 93.37 198.38 93.46 201.64 93.47 202.16 96.36 309.92"/></g><g id="Layer_1-2" data-name="Layer 1"><polygon class="cls-3" points="161.08 53.25 154.67 54.84 153.41 47.25 149.92 47.25 149.92 43.88 156.08 41.75 156.08 48.63 161.08 53.25"/><polygon class="cls-4" points="156.08 41.75 149.92 43.88 149.77 43.93 143.33 38.58 138.54 38.58 130.42 34.25 146.83 34.25 148.33 38 156.08 41.75"/><polygon class="cls-5" points="149.92 43.88 149.92 44.06 149.77 43.93 149.92 43.88"/><polygon class="cls-6" points="161.08 74.08 161.08 74.5 146.83 83.25 133.91 80.02 146.91 81.58 161.08 74.08"/><polygon class="cls-7" points="145.64 125.24 140.03 141.06 137.71 143.13 126.33 147.25 128 143.25 128 136.53 126.85 130 133.66 126.12 143.41 117.44 141.45 115.5 126.21 112.63 122.49 114.44 121.83 114.03 121.83 113.98 122.49 114.37 126.21 112.56 132.58 113.76 132.59 113.76 141.45 115.43 143.41 117.37 144.8 122.29 145.64 125.24"/><polygon class="cls-7" points="161.08 88 159.82 94.79 151.08 104 147.7 119.01 146.83 115.86 142.83 112.56 136.35 109.5 138.25 108.75 137.76 106.8 135.43 97.63 136.45 94 134.58 88.5 132.21 89.87 125.33 77.88 133.91 80.02 146.83 83.25 161.08 88"/><polygon class="cls-3" points="159.82 94.79 156.08 114.87 147.93 119.84 147.45 120.13 147.7 119.01 151.08 104 159.82 94.79"/><polygon class="cls-6" points="151.02 131.3 140.78 140.4 140.03 141.06 145.64 125.24 148.07 133.85 151.02 131.3"/><polygon class="cls-6" points="161.08 113.13 154.95 127.81 151.08 131.25 147.93 119.84 156.08 114.87 161.08 113.13"/><polygon class="cls-8" points="122.49 114.44 122.49 117.44 106.58 116.25 110.39 115.19 119.58 112.63 121.83 114.03 122.49 114.44"/><polygon class="cls-9" points="126.3 122.23 126.23 122.25 116.21 122.25 106.58 116.25 122.49 117.44 122.49 121.29 126.3 122.23"/><polygon class="cls-10" points="140.76 115.92 130.45 122.25 126.37 122.25 126.3 122.23 131.28 120.92 131.29 120.92 131.54 120.85 140.67 115.93 140.76 115.92"/><polygon class="cls-5" points="126.37 122.25 126.23 122.25 126.3 122.23 126.37 122.25"/><polygon class="cls-5" points="141.21 115.64 140.76 115.92 140.67 115.93 141.21 115.64"/><line class="cls-5" x1="140.78" y1="115.92" x2="140.76" y2="115.92"/><polygon class="cls-11" points="124.87 100.33 118.93 99.5 114.7 91.66 117.08 90.13 118.42 77.49 121.83 85 120.12 91.25 124.5 98.13 124.73 99.5 124.87 100.33"/><polygon class="cls-12" points="118.93 99.5 118.21 99.5 110.39 97.25 111.83 93.5 114.7 91.66 118.93 99.5"/><polygon class="cls-13" points="124.87 100.33 124.57 103.22 121.71 103.57 119.5 100.33 124.87 100.33"/><polyline class="cls-5" points="119.5 100.33 118.94 99.51 118.93 99.5"/><polygon class="cls-11" points="94.58 61.98 93.87 62.51 93.83 62.51 94.58 61.98"/><line class="cls-5" x1="81.04" y1="111.11" x2="80.96" y2="111"/><polygon class="cls-11" points="96.12 104.67 89.28 106.32 78.95 88.5 96.12 104.67"/><polygon class="cls-5" points="104.08 111.76 101.84 113.13 102.52 108.94 104.08 111.76"/><polyline class="cls-5" points="120.5 201.92 120.93 208.58 124.5 217.58 130.05 214.69"/><polygon class="cls-14" points="141.45 115.5 141.21 115.64 140.67 115.93 122.49 117.44 122.49 114.44 126.21 112.63 141.45 115.5"/><polygon class="cls-15" points="140.67 115.93 131.54 120.85 122.49 117.48 122.49 117.44 140.67 115.93"/><polygon class="cls-16" points="131.54 120.85 131.29 120.92 131.28 120.92 126.3 122.23 122.49 121.29 122.49 117.48 131.54 120.85"/><line class="cls-5" x1="126.23" y1="122.25" x2="126.08" y2="122.29"/></g><g id="Layer_1_copy" data-name="Layer 1 copy"><polygon class="cls-17" points="149.77 43.93 134.58 49.19 121.83 52.75 121.83 34.25 130.42 34.25 138.54 38.58 143.33 38.58 149.77 43.93"/><polygon class="cls-3" points="161.08 53.25 154.67 54.84 153.41 47.25 149.92 47.25 149.92 43.88 156.08 41.75 156.08 48.63 161.08 53.25"/><polygon class="cls-4" points="156.08 41.75 149.92 43.88 149.77 43.93 143.33 38.58 138.54 38.58 130.42 34.25 146.83 34.25 148.33 38 156.08 41.75"/><polygon class="cls-18" points="154.67 54.84 121.83 63 121.83 52.75 134.58 49.19 149.77 43.93 149.92 44.06 149.92 47.25 153.41 47.25 154.67 54.84"/><polygon class="cls-5" points="149.92 43.88 149.92 44.06 149.77 43.93 149.92 43.88"/><polygon class="cls-19" points="121.83 34.25 121.83 52.75 114.21 50.38 114.21 41.63 106.58 41.63 110.39 49.19 84.08 42.5 89.83 34.25 121.83 34.25"/><polygon class="cls-17" points="121.83 52.75 121.83 63 81.58 52.75 84.08 42.5 110.39 49.19 110.4 49.19 114.21 56.75 114.21 50.38 121.83 52.75"/><polygon class="cls-20" points="159.14 64.8 154.08 60.67 146.91 60.25 133.91 63 128 67.17 128 74.75 132.01 78.33 133.91 80.02 125.33 77.88 125.33 77.87 121.83 77 121.83 63 154.67 54.84 156.08 59.75 159.14 64.8"/><path class="cls-21" d="M159.15,64.81h0l-5.06-4.13-7.17-.42-13,2.75L128,67.17v7.58l6.83-3.93,9.06-2.15L155.08,73l-1.67.12-.54.19h-.05l-5.82,2h-7l-8,3.08,1.9,1.69,13,1.56,14.17-7.5V68Zm-9.23-.64-16,2.58V64.17l12.92-3.09,7.33.67,4.09,4.42Z"/><polygon class="cls-19" points="118.42 77.49 109.33 92.5 104.45 96.25 104.08 102.75 96.12 104.67 78.95 88.5 78.47 83.23 99.16 80.26 100.46 80.83 107.95 80.83 112.55 78.33 112.56 78.33 118.42 77.49 96.5 89.62 98.16 94.79 118.42 77.49"/><polygon class="cls-6" points="161.08 74.08 161.08 74.5 146.83 83.25 133.91 80.02 146.91 81.58 161.08 74.08"/><polygon class="cls-22" points="134.31 97.93 124.87 100.33 124.73 99.5 124.5 98.13 120.12 91.25 121.83 85 118.42 77.49 121.83 77 125.33 77.87 125.33 77.88 127.58 90.37 133.83 93.25 134.31 97.93"/><polygon class="cls-23" points="167.83 83.25 167.56 88.5 166.85 102.4 166.4 111.27 161.08 113.13 156.08 114.87 159.82 94.79 161.08 88 146.83 83.25 161.08 74.5 161.08 68 159.15 64.81 159.14 64.8 156.08 59.75 154.67 54.84 161.08 53.25 167.16 80.28 167.16 80.29 167.83 83.25"/><polygon class="cls-24" points="166.4 111.27 166.12 116.68 155.33 126.92 152.58 139.5 140.78 140.4 151.02 131.3 151.08 131.25 154.95 127.81 161.08 113.13 166.4 111.27"/><polygon class="cls-25" points="166.12 116.68 166.08 117.5 162.75 122.93 152.58 139.5 155.33 126.92 166.12 116.68"/><polygon class="cls-25" points="100.46 136.53 94.71 139.36 94.08 138.75 90.86 133.15 90.86 133.14 81.58 117 81.04 111.12 91.76 126.92 92.45 128.87 94.33 130.67 97.66 133.85 100.46 136.53"/><polygon class="cls-26" points="114.21 41.63 114.21 56.75 110.4 49.19 110.39 49.19 106.58 41.63 114.21 41.63"/><polygon class="cls-5" points="145.64 125.24 140.03 141.06 137.71 143.13 126.33 147.25 128 143.25 128 136.53 126.85 130 133.66 126.12 143.41 117.44 141.45 115.5 126.21 112.63 122.49 114.44 121.83 114.03 121.83 113.98 122.49 114.37 126.21 112.56 132.58 113.76 132.59 113.76 141.45 115.43 143.41 117.37 144.8 122.29 145.64 125.24"/><polygon class="cls-5" points="161.08 88 159.82 94.79 151.08 104 147.7 119.01 146.83 115.86 142.83 112.56 136.35 109.5 138.25 108.75 137.76 106.8 135.43 97.63 136.45 94 134.58 88.5 132.21 89.87 125.33 77.88 133.91 80.02 146.83 83.25 161.08 88"/><polygon class="cls-27" points="81.04 111.12 81.04 111.11 80.78 108.37 85.95 110.5 91.76 126.92 81.04 111.12"/><polygon class="cls-5" points="159.82 94.79 156.08 114.87 147.93 119.84 147.45 120.13 147.7 119.01 151.08 104 159.82 94.79"/><polygon class="cls-5" points="151.02 131.3 140.78 140.4 140.03 141.06 145.64 125.24 148.07 133.85 151.02 131.3"/><polygon class="cls-5" points="161.08 113.13 154.95 127.81 151.08 131.25 147.93 119.84 156.08 114.87 161.08 113.13"/><polygon class="cls-28" points="136.45 94 135.43 97.63 134.58 100.63 134.31 97.93 133.83 93.25 132.21 89.87 134.58 88.5 136.45 94"/><polygon class="cls-8" points="122.49 114.44 122.49 117.44 106.58 116.25 110.39 115.19 119.58 112.63 121.83 114.03 122.49 114.44"/><polygon class="cls-9" points="126.3 122.23 126.23 122.25 116.21 122.25 106.58 116.25 122.49 117.44 122.49 121.29 126.3 122.23"/><polygon class="cls-10" points="140.76 115.92 130.45 122.25 126.37 122.25 126.3 122.23 131.28 120.92 131.29 120.92 131.54 120.85 140.67 115.93 140.76 115.92"/><polygon class="cls-5" points="126.37 122.25 126.23 122.25 126.3 122.23 126.37 122.25"/><polygon class="cls-5" points="141.21 115.64 140.76 115.92 140.67 115.93 141.21 115.64"/><line class="cls-5" x1="140.78" y1="115.92" x2="140.76" y2="115.92"/><polygon class="cls-29" points="152.9 73.28 147.08 75.25 140.11 75.25 133.33 74.08 140.86 70 143.41 70 152.9 73.28"/><polygon class="cls-30" points="153.41 73.08 152.82 73.28 143.33 70 144.91 70 153.41 73.08"/><polygon class="cls-25" points="158.25 66.17 149.92 64.17 133.91 66.75 133.91 64.17 146.83 61.08 154.16 61.75 158.25 66.17"/><polygon class="cls-31" points="93.87 62.51 90.62 64.92 90.61 64.93 89.7 65.61 90.2 65.06 90.21 65.06 90.21 65.05 92.42 62.64 93.82 62.51 93.87 62.51"/><path class="cls-6" d="M176.5,77.66l-4.42-10.74-3.58-.17,0,.3h0l-1.31,13.22h0l3.81.54,1.54,5.42-4.95,2.25-.71,13.9,4.73,1.6,5.17-5.5,1.41-12.25Zm-7.42-3.74V71.13l3.43,1.5,1.15,7.45Zm5.31,21.33-2.18-1,3.87-7.38Z"/><polygon class="cls-21" points="167.56 88.5 167.83 83.25 167.16 80.29 170.97 80.83 172.51 86.25 167.56 88.5"/><polygon class="cls-11" points="124.87 100.33 119.38 100.33 118.94 99.51 118.93 99.5 114.7 91.66 117.08 90.13 118.42 77.49 121.83 85 120.12 91.25 124.5 98.13 124.73 99.5 124.87 100.33"/><polygon class="cls-12" points="119.38 100.33 118.21 99.5 110.39 97.25 111.83 93.5 114.7 91.66 118.93 99.5 118.94 99.51 119.38 100.33"/><path class="cls-32" d="M79,88.5l-5.79,2.25,1.36-5.38,3.81-2.12.14,0-.14-1.48.73-6.5L76.16,70H73.75l-4,5.25L68.41,96.83l4.42,9.34,3.92,1.5,3.88-1Zm-5.79-11,1.36-2.24,1.54,3.17H74.52l-2.36,4Zm0,21.57L71.39,92.5l3.38,4.75Z"/><polygon class="cls-31" points="78.95 88.5 73.16 90.75 74.52 85.37 78.33 83.25 78.47 83.23 78.95 88.5"/><polygon class="cls-24" points="121.83 0.18 114.93 14.09 106.58 12.5 94.71 18.75 92.53 10.42 96.75 7.5 109.5 1.5 119.58 0 121.83 0.18"/><polygon class="cls-25" points="169.08 43.5 168.47 67.05 168.47 67.06 167.16 80.28 161.08 53.25 156.08 48.63 156.08 41.75 148.33 38 146.83 34.25 89.83 34.25 84.08 42.5 81.58 52.75 79.06 75.25 76.16 70 75.16 70 73.83 58.92 73.56 57.32 78.95 51.75 80.63 32.94 94.71 18.75 104.08 28 120.5 23.37 135.15 25.5 121.83 0.18 131.08 0.92 140.58 4.17 151.58 9.17 160.16 15.08 167.83 28.58 161.08 21.75 158.25 22.25 151.77 17.25 151.13 32.5 158.25 28 163.33 34.25 163.33 48.63 169.08 43.5"/><polygon class="cls-33" points="163.33 48.63 163.33 34.25 158.25 28 151.13 32.5 151.77 17.25 158.25 22.25 161.08 21.75 167.83 28.58 169.08 43.5 163.33 48.63"/><polygon class="cls-33" points="94.71 18.75 80.63 32.94 78.95 51.75 73.56 57.32 72.16 49.19 72.16 40 74.5 30.5 80.5 22.25 87.83 13.67 92.53 10.42 94.71 18.75"/><polygon class="cls-34" points="138.25 108.75 136.35 109.5 129.45 106.25 122.49 107.28 121.83 107.21 121.71 103.57 137.76 106.8 138.25 108.75"/><polygon class="cls-35" points="123.68 147.25 111.08 155.25 100.46 136.53 106.58 142.37 117.08 147.25 123.68 147.25"/><polygon class="cls-33" points="140.78 140.4 133.08 155.25 123.68 147.25 126.33 147.25 137.71 143.13 140.03 141.06 140.78 140.4"/><polygon class="cls-35" points="152.58 139.5 133.08 155.25 140.78 140.4 152.58 139.5"/><polygon class="cls-36" points="163.1 130 134.83 159.12 113.08 160.75 92.18 142.75 90.86 133.15 94.08 138.75 94.71 139.36 111.08 155.25 133.08 155.25 152.58 139.5 162.75 122.93 163.1 130"/><polygon class="cls-6" points="122.28 176.56 112.55 175.49 105.31 160.75 93.14 149.76 92.18 142.75 113.08 160.75 122.28 176.56"/><polygon class="cls-27" points="112.55 175.49 110.39 175.25 102.55 169.25 93.5 152.42 93.14 149.76 105.31 160.75 112.55 175.49"/><polygon class="cls-37" points="163.33 134.75 161.08 142.25 144 159.25 122.49 176.58 122.28 176.56 113.08 160.75 134.83 159.12 163.1 130 163.33 134.75"/><polygon class="cls-38" points="143.32 187.78 127.09 206.08 135.16 183.5 135.55 182.42 143.32 187.78"/><polygon class="cls-39" points="121.83 63 121.83 77 118.42 77.49 112.56 78.33 117 75.92 117.5 69.05 113.08 63.92 104.58 61.42 94.58 61.98 93.83 62.51 93.82 62.51 92.42 62.64 90.21 65.05 90.21 65.06 90.2 65.06 89.7 65.61 89.69 65.61 85.91 68.42 85.91 74.42 99.16 80.26 78.47 83.23 78.33 81.75 79.06 75.25 81.58 52.75 121.83 63"/><polygon class="cls-11" points="94.58 61.98 93.87 62.51 90.62 64.92 90.61 64.93 89.7 65.61 90.2 65.06 90.21 65.06 90.21 65.05 92.42 62.64 93.82 62.51 93.83 62.51 94.58 61.98"/><polygon class="cls-29" points="112.57 74.08 105.83 75.25 98.9 75.25 93.94 73.56 105.08 70 112.57 74.08"/><polygon class="cls-31" points="112.55 78.33 107.95 80.83 100.46 80.83 99.16 80.26 112.55 78.33"/><polygon class="cls-31" points="89.69 65.61 88.36 67.06 85.91 74.42 85.91 68.42 89.69 65.61"/><polygon class="cls-31" points="117 75.92 112.56 78.33 112.55 78.33 99.16 80.26 85.91 74.42 90.88 72.96 92.53 73.08 93.93 73.56 93.94 73.56 98.9 75.25 105.83 75.25 117 75.92"/><polygon class="cls-31" points="117.5 69.05 117 75.92 113.08 71.13 102.95 68.67 100.55 69.52 96.64 65.06 112.57 67.64 112.57 65.06 99.72 61.98 90.62 64.92 90.61 64.93 90.21 65.06 90.21 65.05 93.82 62.51 93.83 62.51 94.58 61.98 104.58 61.42 113.08 63.92 117.5 69.05"/><polygon class="cls-25" points="112.57 65.06 112.57 67.64 96.64 65.06 88.36 67.06 89.69 65.61 89.7 65.61 90.61 64.93 90.62 64.92 93.87 62.51 99.72 61.98 112.57 65.06"/><polygon class="cls-30" points="105.08 70 93.94 73.56 93.93 73.56 92.53 73.08 100.97 70 105.08 70"/><polygon class="cls-31" points="76.06 78.42 74.52 78.42 72.16 82.42 73.16 77.49 74.52 75.25 76.06 78.42"/><polygon class="cls-21" points="173.66 80.08 169.08 73.92 169.08 71.13 172.51 72.63 173.66 80.08"/><line class="cls-5" x1="81.04" y1="111.11" x2="80.96" y2="111"/><polygon class="cls-25" points="133.08 155.25 111.08 155.25 123.68 147.25 133.08 155.25"/><polygon class="cls-24" points="111.08 155.25 94.71 139.36 100.46 136.53 111.08 155.25"/><polygon class="cls-26" points="118.42 77.49 98.16 94.79 96.5 89.62 118.42 77.49"/><polygon class="cls-33" points="135.15 25.5 120.5 23.37 104.08 28 94.71 18.75 106.58 12.5 114.93 14.09 121.83 0.18 135.15 25.5"/><polygon class="cls-11" points="96.12 104.67 89.28 106.32 78.95 88.5 96.12 104.67"/><polygon class="cls-5" points="104.08 111.76 101.84 113.13 102.52 108.94 104.08 111.76"/><polygon class="cls-25" points="106.58 116.25 98.83 131.81 99.03 130.56 99.03 130.55 99.04 130.54 104.5 117.44 106.58 116.25"/><polygon class="cls-29" points="177.5 154.23 147.16 259.58 132.58 321.92 133.66 227.25 129.5 212.75 144.33 191.75 156.33 201.08 175.16 158.75 175.16 155.25 174.57 154.23 177.5 154.23"/><polygon class="cls-40" points="96.36 309.92 96.36 316.19 70.66 235.08 77.66 195.08 88.5 177.58 92.41 163.72 91.75 177.75 80 196.74 73.66 234.42 96.36 309.92"/><polygon class="cls-29" points="92.52 166.6 91.75 177.75 92.41 163.72 88.5 177.58 77.66 195.08 70.66 235.08 96.36 316.19 96.36 324.55 70.27 235.05 76.71 195.05 86.68 177.55 92.43 163.24 92.82 162.26 92.52 166.6"/><polygon class="cls-29" points="105.83 203.08 105.83 209.25 99.02 218.92 99.02 324.58 73.66 234.42 80 196.74 91.75 177.75 90 203.08 90.14 203.02 93.46 201.64 99.25 199.22 96.86 193.38 96.85 193.36 95.88 190.99 96.36 190.24 97.46 192.49 97.47 192.5 103.64 199.05 105.83 203.08"/><polygon class="cls-41" points="135.55 182.42 135.16 183.5 119.83 200.75 109.16 199.42 102.71 185.04 108.66 176.58 127.09 176.58 135.55 182.42"/><polygon class="cls-42" points="135.16 183.5 127.09 206.08 119.83 200.75 135.16 183.5"/><polygon class="cls-42" points="109.16 199.42 105.83 203.08 99.02 190.27 102.71 185.04 109.16 199.42"/><path class="cls-43" d="M196.16,173.25,207,168.08l-13.89-9.26h0l-13.58-9.05-2,4.47L147.16,259.58l-14.58,62.34-19.52,44L99,324.58h0l-28.36-89.5,7-40,10.84-17.5,3.91-13.86,0-.11.38-1.35L79.16,177.58,51.83,189.42v55.83l10.32,25.13,23.85,58L112.79,380l26.54-50.6,23.29-44.86L171,268.47l3.05-5.88,8.31-16,30-66.66Zm-8.66,16.17,11.16,2.75-2.33,2.75Z"/><polygon class="cls-1" points="198.66 192.17 196.33 194.92 187.5 189.42 198.66 192.17"/><polygon class="cls-1" points="196.16 173.25 207 168.08 193.11 158.82 271.66 180.08 196.16 173.25"/><polygon class="cls-1" points="304.66 380.92 242.16 381.95 240.33 358.92 244.16 271.58 256.16 205.75 271.66 180.08 294.83 284.08 304.66 380.92"/><polyline class="cls-5" points="120.5 201.92 120.93 208.58 124.5 217.58 130.05 214.69"/><polygon class="cls-30" points="175.16 155.25 170.97 163.24 170.96 163.24 127.09 176.58 122.49 176.58 144 159.25 161.08 142.25 163.33 134.75 171.51 148.93 174.57 154.23 175.16 155.25"/><polygon class="cls-44" points="170.96 163.24 154.16 195.25 143.32 187.78 135.55 182.42 127.09 176.58 170.96 163.24"/><polygon class="cls-45" points="175.16 155.25 175.16 158.75 156.33 201.08 144.33 191.75 129.5 212.75 127.09 206.08 143.32 187.78 154.16 195.25 170.96 163.24 170.97 163.24 175.16 155.25"/><polygon class="cls-46" points="133.66 227.25 132.58 321.92 113.06 365.92 99.02 324.58 99.02 218.92 105.83 209.25 105.83 203.08 109.16 199.42 119.83 200.75 127.09 206.08 129.5 212.75 133.66 227.25"/><path class="cls-47" d="M86,328.42l-23.85-58L41.66,253.92l10.17-8.67V189.42L19.5,206.08,18,219.91,55.33,362.25,51.83,382h58.5l2.46-1.92h0Z"/><polygon class="cls-1" points="55.33 362.25 51.83 381.95 0 381.95 17.96 219.91 55.33 362.25"/><polygon class="cls-48" points="62.15 270.38 41.66 253.92 51.83 245.25 62.15 270.38"/><polygon class="cls-1" points="229 262.59 209.06 280.67 163.33 284.5 162.62 284.56 170.97 268.47 224 263.1 229 262.59"/><polygon class="cls-24" points="124.5 381.95 110.33 381.95 112.79 380.03 112.79 380.02 116.34 377.25 124.5 381.95"/><polygon class="cls-49" points="229 262.59 226 279.25 209.06 280.67 229 262.59"/><polygon class="cls-48" points="271.66 180.08 256.16 205.75 244.16 271.58 240.33 358.92 242.16 381.95 124.5 381.95 116.34 377.25 112.79 380.02 139.33 329.42 162.62 284.56 163.33 284.5 209.06 280.67 226 279.25 229 262.59 224 263.1 224 259.58 174.02 262.59 182.33 246.58 212.33 179.92 196.16 173.25 271.66 180.08"/><polygon class="cls-14" points="141.45 115.5 141.21 115.64 140.67 115.93 122.49 117.44 122.49 114.44 126.21 112.63 141.45 115.5"/><polygon class="cls-15" points="140.67 115.93 131.54 120.85 122.49 117.48 122.49 117.44 140.67 115.93"/><polygon class="cls-16" points="131.54 120.85 131.29 120.92 131.28 120.92 126.3 122.23 122.49 121.29 122.49 117.48 131.54 120.85"/><polygon class="cls-31" points="74.77 97.25 73.16 99.06 71.39 92.5 74.77 97.25"/><polygon class="cls-21" points="176.08 86.87 174.39 95.25 172.21 94.25 176.08 86.87"/><line class="cls-5" x1="126.23" y1="122.25" x2="126.08" y2="122.29"/><polygon class="cls-25" points="151.08 131.25 151.02 131.3 148.07 133.85 145.64 125.24 146.05 124.08 151.08 131.25"/><polygon class="cls-24" points="151.08 131.25 146.05 124.08 147.45 120.13 147.93 119.84 151.08 131.25"/><polygon class="cls-45" points="146.05 124.08 145.64 125.24 144.8 122.29 146.05 124.08"/><polygon class="cls-50" points="147.7 119.01 147.45 120.13 146.05 124.08 144.8 122.29 146.83 115.86 147.7 119.01"/><polygon class="cls-24" points="146.83 115.86 144.8 122.29 143.41 117.37 141.45 115.43 132.59 113.76 146.83 115.86"/><polygon class="cls-25" points="146.83 115.86 132.59 113.76 132.58 113.76 131.29 110.67 132.58 111 136.35 109.5 142.83 112.56 146.83 115.86"/><polygon class="cls-33" points="132.58 113.76 126.21 112.56 122.49 114.37 122.49 109.92 128.41 109.92 131.29 110.67 132.58 113.76"/><polygon class="cls-24" points="136.35 109.5 132.58 111 131.29 110.67 129.45 106.25 136.35 109.5"/><polygon class="cls-35" points="131.29 110.67 128.41 109.92 122.49 109.92 122.49 107.28 129.45 106.25 131.29 110.67"/><polygon class="cls-5" points="147.93 119.84 147.45 120.13 147.7 119.01 147.93 119.84"/><polygon class="cls-25" points="122.49 109.92 122.49 114.37 121.83 113.98 121.83 109.92 122.49 109.92"/><polygon class="cls-25" points="122.49 107.28 122.49 109.92 121.83 109.92 121.83 107.21 122.49 107.28"/><polygon class="cls-25" points="121.83 107.21 121.83 109.92 121.41 109.92 118.07 106.8 121.83 107.21"/><polygon class="cls-51" points="121.71 103.57 117.5 101.87 110.39 97.25 118.21 99.5 119.38 100.33 119.5 100.33 121.71 103.57"/><polygon class="cls-52" points="121.83 107.21 118.07 106.8 118.06 106.8 116.41 105.25 114.16 105.25 110.39 97.25 117.5 101.87 121.71 103.57 121.83 107.21"/><polygon class="cls-24" points="121.83 109.92 121.83 113.98 119.58 112.63 110.39 115.19 113.08 106.25 118.06 106.8 118.07 106.8 121.41 109.92 121.83 109.92"/><polygon class="cls-33" points="113.08 106.25 110.39 115.19 105.31 113.97 104.08 111.76 113.08 106.25"/><polygon class="cls-25" points="106.58 116.25 104.5 117.44 99.04 130.54 101.84 113.13 105.31 113.97 106.58 116.25"/><polygon class="cls-20" points="89.28 106.32 80.78 108.37 80.63 106.66 78.95 88.5 89.28 106.32"/><polygon class="cls-39" points="118.06 106.8 113.08 106.25 104.08 111.76 102.52 108.94 101.84 113.13 94.33 130.67 92.45 128.87 91.76 126.92 85.95 110.5 80.78 108.37 89.28 106.32 96.12 104.67 104.08 102.75 110.39 97.25 114.16 105.25 116.41 105.25 118.06 106.8"/><polygon class="cls-53" points="104.08 111.76 101.84 113.13 102.52 108.94 104.08 111.76"/><polygon class="cls-33" points="101.84 113.13 97.66 133.85 94.33 130.67 101.84 113.13"/><polygon class="cls-54" points="101.84 113.13 99.04 130.54 99.03 130.55 99.03 130.56 97.66 133.85 101.84 113.13"/><polygon class="cls-50" points="105.31 113.97 101.84 113.13 104.08 111.76 105.31 113.97"/><polygon class="cls-25" points="110.39 115.19 106.58 116.25 105.31 113.97 110.39 115.19"/><polygon class="cls-6" points="143.41 117.44 133.66 126.12 130.45 122.25 140.76 115.92 141.21 115.64 141.45 115.5 143.41 117.44"/><polygon class="cls-25" points="133.66 126.12 126.85 130 125.54 130.75 121.83 130.48 121.83 122.25 130.45 122.25 133.66 126.12"/><polygon class="cls-55" points="128 136.53 128 143.25 126.33 147.25 121.83 147.25 121.83 130.48 125.54 130.75 126.85 130 128 136.53"/><polygon class="cls-24" points="121.83 122.25 121.83 130.48 118.66 130.25 112.04 125 116.21 122.25 121.83 122.25"/><polygon class="cls-27" points="116.93 139.5 118.54 147.25 117.08 147.25 106.58 142.37 100.46 136.53 97.66 133.85 99.03 130.56 98.83 131.81 106.58 116.25 116.21 122.25 112.04 125 118.66 130.25 116.93 139.5"/><polygon class="cls-25" points="121.83 130.48 121.83 147.25 118.54 147.25 116.93 139.5 118.66 130.25 121.83 130.48"/><polygon class="cls-56" points="134.31 97.93 131.32 99.9 124.57 103.22 124.87 100.33 134.31 97.93"/><polygon class="cls-57" points="111.83 93.5 110.39 97.25 104.08 102.75 104.45 96.25 109.33 92.5 111.83 93.5"/><polygon class="cls-39" points="118.42 77.49 117.08 90.13 114.7 91.66 111.83 93.5 109.33 92.5 118.42 77.49"/><line class="cls-5" x1="109.33" y1="92.5" x2="109.21" y2="92.7"/><polygon class="cls-58" points="133.83 93.25 127.58 90.37 125.33 77.88 132.21 89.87 133.83 93.25"/><polygon class="cls-55" points="105.83 75.25 112.57 74.08 106.58 70.82 105.08 70 113.08 71.13 117 75.92 105.83 75.25"/><polygon class="cls-55" points="133.25 74.08 140.03 75.25 132.01 78.33 128 74.75 134.83 70.82 140.78 70 133.25 74.08"/><polygon class="cls-6" points="100.55 69.52 90.88 72.96 85.91 74.42 88.36 67.06 96.64 65.06 100.55 69.52"/><polygon class="cls-52" points="137.76 106.8 121.71 103.57 124.57 103.22 131.32 99.9 134.31 97.93 134.58 100.63 135.43 97.63 137.76 106.8"/><polygon class="cls-59" points="113.08 71.13 105.08 70 100.97 70 100.55 69.52 102.95 68.67 113.08 71.13"/><polygon class="cls-59" points="100.97 70 90.88 72.96 100.55 69.52 100.97 70"/><polygon class="cls-59" points="100.97 70 92.53 73.08 90.88 72.96 100.97 70"/><polygon class="cls-59" points="155.08 72.96 153.41 73.08 144.91 70 140.78 70 134.83 70.82 143.89 68.67 155.08 72.96"/><polygon class="cls-60" points="103.64 199.05 90 203.22 99.02 190.27 103.64 199.05"/><polygon class="cls-44" points="122.29 176.58 108.66 176.58 102.71 185.04 99.02 190.27 98.5 191.02 90 203.08 92.82 162.26 93.5 152.42 102.55 169.25 110.39 175.25 112.55 175.49 122.28 176.56 122.29 176.58"/><polygon class="cls-61" points="224 259.58 224 263.1 170.97 268.47 174.02 262.59 224 259.58"/></g></g></svg>